<svg xmlns="http://www.w3.org/2000/svg" viewBox="0 0 236.12 44.26"><defs><style>.cls-1{fill:#f9007b;}.cls-2{fill:#fff;}</style></defs><g id="图层_2" data-name="图层 2"><g id="图层_1-2" data-name="图层 1"><path class="cls-1" d="M72,4.27A4.27,4.27,0,1,1,67.74,0,4.27,4.27,0,0,1,72,4.27Z"/><path class="cls-2" d="M202.74,11.28h-6.43c0-.42-.07-1.2-.1-1.84,0-.32,0-.61,0-.8v-.1h-3.75v.11c0,.23,0,.59,0,1,0,.59.06,1.25.09,1.64h-6.15v3.48h16.33Z"/><path class="cls-2" d="M201.28,34.49a.83.83,0,0,1-.83-.83V19.79a2.14,2.14,0,0,0-2.13-2.14h-8.06a2.16,2.16,0,0,0-2.16,2.16v6.72a19.05,19.05,0,0,1-1.38,7.66,7.61,7.61,0,0,1-1.38,2.24l-.08.08,2.55,1.87.05,0,.06,0c.15-.1,3.66-2.46,3.66-11.85V21.7a.56.56,0,0,1,.57-.56h4.29a.53.53,0,0,1,.53.53v12.6a3.7,3.7,0,0,0,3.7,3.7l2.79,0V34.45Z"/><path class="cls-2" d="M185.41,12.88a2.1,2.1,0,0,0-2.09-2.09h-3.53a6.16,6.16,0,0,0,.77-2.13l0-.12h-3.76v.09a5.93,5.93,0,0,1-.82,2.16h-1.07a2.1,2.1,0,0,0-2.1,2.09v8.54H171.1V24.9h1.73v1.63a19.48,19.48,0,0,1-1.4,7.59A9.62,9.62,0,0,1,170,36.58l-.07.09,2.83,1.71.06,0,0,0c.14-.1,3.4-2.47,3.4-11.85V24.9h5.62v8.79a.82.82,0,0,1-.82.81h-1.9V38h3a3.16,3.16,0,0,0,3.15-3.15Zm-9.1,1.8a.41.41,0,0,1,.42-.41h4.78a.41.41,0,0,1,.42.41v6.74h-5.62Z"/><path class="cls-2" d="M180.68,17.46c0-.85,0-1.58-.05-1.82v-.09h-3.18v.1c0,.26,0,1.13,0,2,0,1.25.06,2.66.09,3v.09h3.17v-.1C180.74,20.32,180.7,18.73,180.68,17.46Z"/><path class="cls-2" d="M180.93,30.85c0-.35-.07-1.93-.1-3.2,0-.85,0-1.58,0-1.82v-.09h-3.33v.1c0,.26,0,1.12,0,2,0,1.25.06,2.66.09,3V31h3.33Z"/><rect class="cls-2" x="138.6" y="10.66" width="25.02" height="4.01"/><path class="cls-2" d="M159.92,34a.83.83,0,0,1-.83-.82V23.78h6.73v-4H136.4v4h6.95c-.07,7.37-7.69,11.32-7.77,11.36l-.1,0,2.25,3.19.07,0c.1,0,9.63-4.5,9.69-14.57h7.6V34.27a3.7,3.7,0,0,0,3.7,3.7h7.9V34Z"/><path class="cls-2" d="M127,33.82a.82.82,0,0,1-.82-.82V16.59a3.1,3.1,0,0,0-3.1-3.1H112.58v-5h-4.14v5H101.7v4.14h6.62c-1.1,13-9.11,17.38-9.19,17.42l-.1.06,2.49,3.27.07,0a14.89,14.89,0,0,0,5.07-4.13c2.35-2.82,5.27-8,5.82-16.59h9a.55.55,0,0,1,.55.55V34.27a3.7,3.7,0,0,0,3.7,3.7h5.08V33.82Z"/><polygon class="cls-2" points="223.49 28.53 234.4 28.53 234.4 25.05 208.84 25.05 208.84 28.53 219.75 28.53 219.75 34.49 207.12 34.49 207.12 37.97 236.12 37.97 236.12 34.49 223.49 34.49 223.49 28.53"/><path class="cls-2" d="M233,11.15h-9.41c0-.45-.06-1.14-.08-1.71,0-.33,0-.61,0-.8v-.1h-3.75v.11c0,.23,0,.6.05,1s.05,1.1.08,1.5h-9.51a3.17,3.17,0,0,0-3.17,3.17v3.56h3.75V15.43a.54.54,0,0,1,.53-.54H216c-.48,5.3-8.3,5.92-8.38,5.93h-.11l.72,3.45h.08c.12,0,11.32-.5,11.52-9.38H224v4.58a3.7,3.7,0,0,0,3.7,3.7h7.4V19.42h-6.53a.83.83,0,0,1-.83-.82V14.89h4.14a.54.54,0,0,1,.54.54v2.45h3.74V14.32A3.18,3.18,0,0,0,233,11.15Z"/><rect class="cls-1" x="64.06" y="11.2" width="7.4" height="26.74" rx="0.38"/><path class="cls-1" d="M60.28,11.58a.38.38,0,0,0-.38-.38H54.46a.44.44,0,0,0-.46.39l-.46,1.17-.21-.14a13.85,13.85,0,0,0-7.51-2.21A14.32,14.32,0,0,0,31.36,24.58c0,7.82,5.9,13.52,13.88,13.52,2.47,0,5.68-.57,7.51-2.52l.44,1.94a.47.47,0,0,0,.42.43h6.28a.37.37,0,0,0,.27-.11.4.4,0,0,0,.12-.27ZM45.21,32a7.43,7.43,0,1,1,7.3-7.43A7.36,7.36,0,0,1,45.21,32Z"/><path class="cls-1" d="M91.38,18.75V11.68a.4.4,0,0,0-.35-.39,11.33,11.33,0,0,0-8.75,2l-.42-1.67c-.12-.33-.19-.44-.43-.44h-5.8a.39.39,0,0,0-.38.39v26a.38.38,0,0,0,.38.38h6.62a.38.38,0,0,0,.38-.38V21.42c1.39-3,6.5-2.63,8.31-2.3A.38.38,0,0,0,91.38,18.75Z"/><path class="cls-1" d="M29.13,22.47A14.79,14.79,0,0,0,16.36,8.64,14.49,14.49,0,0,0,0,22a10,10,0,0,0,.6,4.39A8.11,8.11,0,0,0,8.3,31.5,10.18,10.18,0,0,0,12,30.58a.78.78,0,0,0,.56-.74.82.82,0,0,0-.56-.75,6.68,6.68,0,1,1,7.21-1.42S11.54,36,9.12,38.49A1,1,0,0,0,9.17,40L13,43.75c.84.76,1.88.69,2.91-.34l8.89-10A14.12,14.12,0,0,0,29.13,22.47Z"/></g></g></svg>