<svg xmlns="http://www.w3.org/2000/svg" viewBox="0 0 131.36 161.02"><defs><style>.cls-1{fill:#fff;}</style></defs><g id="图层_2" data-name="图层 2"><g id="图层_1-2" data-name="图层 1"><path class="cls-1" d="M131.29,62.81C129.91,31.54,104.84,4,73.74.47,33.8-4,3.48,24.5.18,60.81a45,45,0,0,0,2.69,19.8c5.27,13.85,19.76,23.31,34.55,22.88,5.74-.16,11.26-1.89,16.54-4.14A3.5,3.5,0,0,0,56.47,96,3.64,3.64,0,0,0,54,92.64a30.13,30.13,0,1,1,41.51-27.9c0,8.42-3.94,16.9-9,21.5,0,0-34.41,37.33-45.35,48.79a4.6,4.6,0,0,0,.25,6.59L58.59,158.7c3.8,3.45,8.49,3.13,13.12-1.5l40.08-44.94C125.28,98.76,132.14,82.1,131.29,62.81Z"/></g></g></svg>