<svg xmlns="http://www.w3.org/2000/svg" viewBox="0 0 236.5 44.33"><defs><style>.cls-1{fill:#f9007b;}.cls-2{fill:#002fa7;}</style></defs><g id="图层_2" data-name="图层 2"><g id="图层_1-2" data-name="图层 1"><path class="cls-1" d="M72.12,4.28A4.28,4.28,0,1,1,67.85,0,4.27,4.27,0,0,1,72.12,4.28Z"/><path class="cls-2" d="M203.06,11.3h-6.44c0-.43-.07-1.21-.09-1.85,0-.32,0-.61,0-.8V8.56h-3.76v.1c0,.23,0,.6,0,1,0,.59.06,1.25.09,1.64h-6.16v3.48h16.35Z"/><path class="cls-2" d="M201.6,34.54a.83.83,0,0,1-.83-.82V19.82a2.13,2.13,0,0,0-2.13-2.14h-8.08a2.16,2.16,0,0,0-2.15,2.16v6.73A19.07,19.07,0,0,1,187,34.24a7.59,7.59,0,0,1-1.38,2.25l-.08.08,2.55,1.87,0,0,.06,0c.15-.09,3.67-2.47,3.67-11.87V21.74a.56.56,0,0,1,.57-.57h4.3a.53.53,0,0,1,.53.53V34.33A3.71,3.71,0,0,0,201,38l2.79,0V34.5Z"/><path class="cls-2" d="M185.71,12.9a2.09,2.09,0,0,0-2.1-2.09h-3.53a6.12,6.12,0,0,0,.77-2.14l0-.11h-3.76v.09a6,6,0,0,1-.83,2.16H175.2a2.09,2.09,0,0,0-2.1,2.09v8.55h-1.73v3.49h1.73v1.63a19.5,19.5,0,0,1-1.4,7.6,10.36,10.36,0,0,1-1.39,2.47l-.08.09,2.84,1.71.06,0,.05,0c.14-.1,3.4-2.47,3.4-11.87V24.94h5.63v8.8a.82.82,0,0,1-.82.82h-1.9v3.49h3.05a3.16,3.16,0,0,0,3.16-3.15Zm-9.12,1.81a.42.42,0,0,1,.42-.42h4.79a.42.42,0,0,1,.42.42v6.74h-5.63Z"/><path class="cls-2" d="M181,17.49c0-.85,0-1.58-.05-1.82v-.09h-3.18v.1c0,.25,0,1.12.05,2,0,1.25,0,2.66.09,3v.09h3.18l0-.11C181,20.35,181,18.76,181,17.49Z"/><path class="cls-2" d="M181.22,30.9c0-.35-.07-1.93-.1-3.21,0-.85,0-1.58,0-1.82v-.09h-3.33v.1c0,.26,0,1.13.05,2.05,0,1.24,0,2.66.09,3V31h3.33Z"/><rect class="cls-2" x="138.82" y="10.67" width="25.06" height="4.02"/><path class="cls-2" d="M160.18,34a.83.83,0,0,1-.83-.82V23.82h6.74v-4H136.62v4h7c-.07,7.38-7.7,11.34-7.78,11.38l-.1,0,2.25,3.2.07,0c.1,0,9.64-4.51,9.71-14.59h7.61v10.5A3.71,3.71,0,0,0,159,38H167V34Z"/><path class="cls-2" d="M127.23,33.88a.83.83,0,0,1-.83-.82V16.62a3.11,3.11,0,0,0-3.11-3.11H112.77V8.56h-4.15v4.95h-6.75v4.14h6.62c-1.1,13.07-9.12,17.42-9.2,17.46l-.1,0,2.5,3.28.07,0a15,15,0,0,0,5.07-4.13c2.36-2.83,5.28-8,5.84-16.63h9a.56.56,0,0,1,.55.56V34.32A3.71,3.71,0,0,0,126,38h5.08V33.88Z"/><polygon class="cls-2" points="223.85 28.58 234.78 28.58 234.78 25.09 209.18 25.09 209.18 28.58 220.1 28.58 220.1 34.54 207.45 34.54 207.45 38.03 236.5 38.03 236.5 34.54 223.85 34.54 223.85 28.58"/><path class="cls-2" d="M233.32,11.16H223.9c0-.44-.06-1.14-.08-1.71,0-.32,0-.61,0-.8V8.56H220v.1c0,.23,0,.6.05,1s0,1.11.07,1.5h-9.52a3.19,3.19,0,0,0-3.18,3.18V17.9h3.76V15.45a.53.53,0,0,1,.53-.53h4.65c-.49,5.3-8.31,5.92-8.39,5.93h-.11l.72,3.45h.08c.11,0,11.34-.51,11.53-9.39h4.1V19.5a3.7,3.7,0,0,0,3.7,3.7h7.42V19.45h-6.55a.82.82,0,0,1-.82-.82V14.92h4.14a.54.54,0,0,1,.54.53V17.9h3.75V14.34A3.19,3.19,0,0,0,233.32,11.16Z"/><rect class="cls-1" x="64.16" y="11.22" width="7.42" height="26.79" rx="0.38"/><path class="cls-1" d="M60.37,11.6a.37.37,0,0,0-.37-.38H54.55a.46.46,0,0,0-.47.38l-.45,1.18-.22-.14a13.77,13.77,0,0,0-7.52-2.21A14.34,14.34,0,0,0,31.41,24.62c0,7.83,5.91,13.54,13.9,13.54,2.48,0,5.69-.57,7.53-2.53l.43,1.95a.47.47,0,0,0,.43.43H60a.37.37,0,0,0,.27-.11.39.39,0,0,0,.11-.27ZM45.28,32.06a7.44,7.44,0,1,1,7.32-7.44A7.37,7.37,0,0,1,45.28,32.06Z"/><path class="cls-1" d="M91.53,18.78V11.7a.41.41,0,0,0-.35-.39,11.31,11.31,0,0,0-8.77,2L82,11.66c-.12-.33-.19-.44-.43-.44H75.75a.38.38,0,0,0-.38.38v26a.38.38,0,0,0,.38.38h6.64a.38.38,0,0,0,.38-.38V21.45c1.38-3,6.5-2.63,8.31-2.3A.38.38,0,0,0,91.53,18.78Z"/><path class="cls-1" d="M29.17,22.51A14.79,14.79,0,0,0,16.39,8.66,14.51,14.51,0,0,0,0,22.06a10,10,0,0,0,.6,4.4,8.14,8.14,0,0,0,7.68,5.09A10.23,10.23,0,0,0,12,30.63a.78.78,0,0,0,.56-.74.8.8,0,0,0-.56-.75,6.7,6.7,0,1,1,7.22-1.43S11.56,36,9.13,38.56A1,1,0,0,0,9.19,40L13,43.82c.84.76,1.89.69,2.92-.34l8.9-10A14.18,14.18,0,0,0,29.17,22.51Z"/></g></g></svg>