<svg xmlns="http://www.w3.org/2000/svg" viewBox="0 0 169.63 105.84"><defs><style>.cls-1{fill:#f9007b;}.cls-2{fill:#002fa7;}</style></defs><g id="图层_2" data-name="图层 2"><g id="图层_1-2" data-name="图层 1"><path class="cls-1" d="M98.34,5.83A5.83,5.83,0,1,1,92.51,0,5.83,5.83,0,0,1,98.34,5.83Z"/><path class="cls-2" d="M128.33,72.26h-8c-.05-.52-.09-1.49-.12-2.27,0-.4,0-.76,0-1v-.11h-4.64V69c0,.28,0,.73.06,1.23,0,.73.06,1.54.1,2h-7.61v4.31h20.21Z"/><path class="cls-2" d="M126.52,101a1,1,0,0,1-1-1V82.79a2.64,2.64,0,0,0-2.64-2.64h-10a2.67,2.67,0,0,0-2.66,2.67v8.31a23.54,23.54,0,0,1-1.71,9.48,9.3,9.3,0,0,1-1.71,2.77l-.1.1,3.15,2.31.07,0,.07,0c.19-.12,4.54-3,4.54-14.67v-6a.7.7,0,0,1,.7-.7h5.32a.65.65,0,0,1,.65.66v15.59a4.59,4.59,0,0,0,4.58,4.58l3.46,0v-4.32Z"/><path class="cls-2" d="M106.88,74.24a2.59,2.59,0,0,0-2.58-2.58H99.93a7.63,7.63,0,0,0,1-2.64l0-.14H96.26V69a7.21,7.21,0,0,1-1,2.67H93.9a2.59,2.59,0,0,0-2.59,2.58V84.81H89.18v4.3h2.14v2a24.14,24.14,0,0,1-1.73,9.39,12.37,12.37,0,0,1-1.72,3l-.09.11,3.51,2.12.07,0,.06,0c.17-.11,4.21-3.05,4.21-14.66v-2h7V100a1,1,0,0,1-1,1H99.22v4.31H103a3.89,3.89,0,0,0,3.89-3.89ZM95.63,76.48a.51.51,0,0,1,.51-.52h5.92a.52.52,0,0,1,.52.52v8.33h-7Z"/><path class="cls-2" d="M101,79.91c0-1,0-2,0-2.25v-.11H97v.13c0,.31,0,1.39.07,2.52,0,1.54.06,3.29.1,3.7V84h3.93v-.13C101.1,83.45,101.06,81.48,101,79.91Z"/><path class="cls-2" d="M101.34,96.48c0-.43-.08-2.39-.12-4,0-1,0-2,0-2.25v-.12H97v.13c0,.32,0,1.39.07,2.53,0,1.54.06,3.28.1,3.7v.11h4.13Z"/><rect class="cls-2" x="48.97" y="71.49" width="30.96" height="4.96"/><path class="cls-2" d="M75.34,100.35a1,1,0,0,1-1-1V87.73h8.32v-5H46.24v5h8.6c-.08,9.12-9.51,14-9.6,14.06l-.13.06,2.78,4,.09,0c.12-.05,11.91-5.57,12-18h9.4v13a4.58,4.58,0,0,0,4.57,4.58h9.78v-4.94Z"/><path class="cls-2" d="M34.64,100.16a1,1,0,0,1-1-1V78.84A3.85,3.85,0,0,0,29.78,75h-13V68.88H11.65V75H3.32v5.12H11.5C10.14,96.26.23,101.63.13,101.68l-.13.07,3.09,4,.09,0a18.41,18.41,0,0,0,6.26-5.11c2.91-3.49,6.52-9.89,7.21-20.53H27.82a.67.67,0,0,1,.68.68v19.91a4.59,4.59,0,0,0,4.58,4.58h6.29v-5.13Z"/><polygon class="cls-2" points="154.01 93.61 167.5 93.61 167.5 89.31 135.88 89.31 135.88 93.61 149.37 93.61 149.37 100.98 133.75 100.98 133.75 105.29 169.63 105.29 169.63 100.98 154.01 100.98 154.01 93.61"/><path class="cls-2" d="M165.7,72.1H154.07c0-.55-.08-1.41-.1-2.12,0-.4,0-.75-.05-1v-.11h-4.64V69c0,.28,0,.74.06,1.23,0,.65.06,1.37.09,1.86H137.67A3.93,3.93,0,0,0,133.75,76v4.41h4.64v-3a.65.65,0,0,1,.66-.66h5.74c-.6,6.55-10.27,7.32-10.37,7.32h-.14l.9,4.27h.1c.14,0,14-.62,14.24-11.59h5.06v5.65A4.59,4.59,0,0,0,159.16,87h9.16V82.34h-8.08a1,1,0,0,1-1-1V76.74h5.11a.66.66,0,0,1,.67.66v3h4.63V76A3.93,3.93,0,0,0,165.7,72.1Z"/><rect class="cls-1" x="87.49" y="15.3" width="10.11" height="36.52" rx="0.52"/><path class="cls-1" d="M82.32,15.81a.51.51,0,0,0-.51-.51H74.37a.63.63,0,0,0-.63.52l-.61,1.61-.3-.19a18.8,18.8,0,0,0-10.25-3A19.55,19.55,0,0,0,42.83,33.57c0,10.68,8.05,18.47,19,18.47,3.38,0,7.77-.78,10.27-3.45l.59,2.65a.63.63,0,0,0,.58.59H81.8a.52.52,0,0,0,.37-.16.51.51,0,0,0,.15-.36ZM61.74,43.71a10.15,10.15,0,1,1,10-10.14A10,10,0,0,1,61.74,43.71Z"/><path class="cls-1" d="M124.8,25.6V16a.55.55,0,0,0-.47-.53,15.47,15.47,0,0,0-12,2.76l-.57-2.28c-.16-.45-.26-.6-.59-.6h-7.92a.52.52,0,0,0-.52.52V51.31a.52.52,0,0,0,.52.52h9a.52.52,0,0,0,.52-.52V29.25c1.89-4.09,8.87-3.59,11.34-3.14A.51.51,0,0,0,124.8,25.6Z"/><path class="cls-1" d="M39.78,30.69A20.2,20.2,0,0,0,22.34,11.8C10.24,10.43,1.05,19.08.05,30.09a13.63,13.63,0,0,0,.82,6A11.09,11.09,0,0,0,11.34,43a13.91,13.91,0,0,0,5-1.26,1.05,1.05,0,0,0,.76-1,1.11,1.11,0,0,0-.76-1,9.14,9.14,0,1,1,9.84-1.94S15.77,49.1,12.45,52.57a1.4,1.4,0,0,0,.08,2l5.22,5.18c1.15,1,2.58,1,4-.46L33.87,45.68A19.32,19.32,0,0,0,39.78,30.69Z"/></g></g></svg>